<?xml version="1.0" encoding="UTF-8" standalone="no"?>
<!-- Created with Inkscape (http://www.inkscape.org/) -->

<svg
   width="273.29559mm"
   height="35.311001mm"
   viewBox="0 0 1032.9282 133.4589"
   version="1.1"
   id="svg1"
   xmlns="http://www.w3.org/2000/svg"
   xmlns:svg="http://www.w3.org/2000/svg">
  <defs
     id="defs1" />
  <g
     id="layer1"
     transform="translate(-54.252879,-243.96595)">
    <g
       id="use107"
       transform="matrix(2.2053628,0,0,2.2053628,-2061.3925,-1063.7022)">
      <g
         id="g4">
        <path
           id="path1"
           d="M 34.933497,-6.671875e-4 V -8.5670734 H 15.831934 V -19.840511 h 17.625 v -8.566406 h -17.625 v -7.828125 h 19.101563 v -8.566406 H 4.6170906 V -6.671875e-4 Z m 0,0"
           style="fill:#2f3c84;fill-opacity:1;fill-rule:nonzero;stroke:none"
           aria-label="E"
           transform="matrix(1.3333333,0,0,1.3333333,953.1624,653.46573)" />
        <path
           id="path2"
           d="M 24.526352,-6.671875e-4 V -36.235042 h 13.242187 v -8.566406 H -9.918375e-4 v 8.566406 H 13.241196 V -6.671875e-4 Z M 77.881821,-44.801448 H 47.870102 V -6.671875e-4 H 59.084946 V -19.219417 h 17.320312 v -8.566406 H 59.084946 v -8.449219 h 18.796875 z m 0,0"
           style="fill:#2f3c84;fill-opacity:1;fill-rule:nonzero;stroke:none"
           aria-label="TF"
           transform="matrix(1.3333333,0,0,1.3333333,1010.9956,653.46573)" />
        <path
           id="path3"
           d="m 9.4326031,-10.816523 v -2.027344 H 1.3115094 V -1.171875e-4 H 9.4326031 V -2.0274609 H 3.5966656 v -3.84375 H 7.7568219 V -7.8165234 H 3.5966656 v -2.9999996 z m 2.1884769,8.9296871 c 0,1.38281246 0.503906,2.06249996 1.5,2.06249996 0.820312,0 1.394531,-0.31640625 1.734375,-0.9609375 C 14.164048,-1.0196484 13.812486,-1.7110547 13.812486,-2.8594922 V -13.418086 l -2.191406,0.515625 z m 13.333008,-3.3632813 c 0,-1.2539062 -0.410157,-2.296875 -1.230469,-3.1054687 -0.832031,-0.8085938 -1.921875,-1.21875 -3.269531,-1.21875 -1.300782,0 -2.390625,0.46875 -3.304688,1.3828125 -0.925781,0.9140625 -1.371094,2.1210937 -1.371094,3.5976562 0,1.5 0.410157,2.671875 1.253907,3.515625 0.832031,0.84375001 1.957031,1.25390626 3.398437,1.25390626 1.523438,0 2.683594,-0.3046875 3.445313,-0.92578125 l -0.84375,-1.67578121 c -0.515625,0.5273437 -1.289063,0.7734375 -2.273438,0.7734375 -0.808594,0 -1.453125,-0.2109375 -1.921875,-0.6328125 -0.46875,-0.4101563 -0.738281,-0.984375 -0.773437,-1.734375 h 6.714843 c 0.128907,-0.5390625 0.175782,-0.9609375 0.175782,-1.2304688 z m -4.488282,-2.4960937 c 1.371094,0 2.144532,0.6914062 2.285157,2.0742187 h -4.605469 c 0.304687,-1.3828125 1.078125,-2.0742187 2.320312,-2.0742187 z M 35.158189,-1.171875e-4 31.337877,-5.8360547 l 3.175781,-3.5625 h -2.636719 l -3.128906,3.609375 v -7.6289063 l -2.191406,0.515625 V -1.171875e-4 h 2.191406 V -3.1407422 l 1.066406,-1.1132812 2.742188,4.2539062125 z M 36.570298,-2.8712109 c 0,0.9726562 0.246094,1.7226562 0.75,2.26171871 0.503907,0.515625 1.21875,0.78515625 2.179688,0.78515625 0.925781,0 1.664062,-0.08203125 2.167969,-0.26953125 V -2.0977734 c -0.46875,0.28125 -0.949219,0.421875 -1.476563,0.421875 -0.539062,0 -0.914062,-0.140625 -1.113281,-0.4101563 -0.210938,-0.28125 -0.316406,-0.75 -0.316406,-1.4296875 v -4.125 h 2.589843 v -1.7578125 h -2.589843 v -2.7070313 l -2.191407,0.808594 v 1.8984373 h -1.101562 v 1.7578125 h 1.101562 z m 12.990235,-6.3632813 c -0.398438,-0.234375 -0.972656,-0.3398437 -1.722656,-0.3398437 -1.007813,0 -1.839844,0.3398437 -2.449219,1.0429687 v -0.8671875 h -2.191406 v 9.3984375125 h 2.191406 V -5.3555859 c 0,-0.6679688 0.199219,-1.2421875 0.597656,-1.6875 0.398438,-0.46875 0.84375,-0.703125 1.347656,-0.703125 0.46875,0 0.890625,0.1289062 1.289063,0.3984375 z m 1.722656,8.0625 c 0.796875,0.90234376 1.910156,1.34765626 3.328125,1.34765626 1.394531,0 2.496094,-0.4453125 3.304688,-1.32421876 0.808593,-0.8789062 1.207031,-2.0625 1.207031,-3.5742187 0,-1.4882813 -0.398438,-2.6835938 -1.195313,-3.5625 -0.785156,-0.8554688 -1.886718,-1.2890625 -3.316406,-1.2890625 -1.347656,0 -2.449219,0.4453125 -3.269531,1.3476562 -0.832031,0.9023438 -1.242188,2.0625 -1.242188,3.5039063 0,1.4882812 0.398438,2.671875 1.183594,3.5507812 z m 1.710938,-5.8007812 c 0.398437,-0.5390625 0.9375,-0.8085938 1.617187,-0.8085938 1.488281,0 2.226563,1.03125 2.226563,3.0585938 0,1.0078125 -0.199219,1.7578125 -0.597657,2.296875 -0.410156,0.5390625 -0.949218,0.8085937 -1.628906,0.8085937 -1.488281,0 -2.226562,-1.0429687 -2.226562,-3.1054687 0,-0.9492188 0.199218,-1.7109375 0.609375,-2.25 z m 17.358398,-3.8437496 v -2.027344 H 59.700181 v 2.027344 h 4.089844 V -1.171875e-4 h 2.285156 V -10.816523 Z m 7.737305,5.5664058 c 0,-1.2539062 -0.410157,-2.296875 -1.230469,-3.1054687 -0.832031,-0.8085938 -1.921875,-1.21875 -3.269531,-1.21875 -1.300782,0 -2.390625,0.46875 -3.304688,1.3828125 -0.925781,0.9140625 -1.371094,2.1210937 -1.371094,3.5976562 0,1.5 0.410157,2.671875 1.253907,3.515625 0.832031,0.84375001 1.957031,1.25390626 3.398437,1.25390626 1.523438,0 2.683594,-0.3046875 3.445313,-0.92578125 l -0.84375,-1.67578121 c -0.515625,0.5273437 -1.289063,0.7734375 -2.273438,0.7734375 -0.808594,0 -1.453125,-0.2109375 -1.921875,-0.6328125 -0.46875,-0.4101563 -0.738281,-0.984375 -0.773437,-1.734375 h 6.714843 c 0.128907,-0.5390625 0.175782,-0.9609375 0.175782,-1.2304688 z m -4.488282,-2.4960937 c 1.371094,0 2.144532,0.6914062 2.285157,2.0742187 h -4.605469 c 0.304687,-1.3828125 1.078125,-2.0742187 2.320312,-2.0742187 z M 88.279283,-1.171875e-4 84.45897,-5.8360547 l 3.175782,-3.5625 h -2.636719 l -3.128906,3.609375 v -7.6289063 l -2.191407,0.515625 V -1.171875e-4 h 2.191407 V -3.1407422 l 1.066406,-1.1132812 2.742187,4.2539062125 z m 9.292969,0 V -5.7657422 c 0,-1.2070312 -0.316407,-2.1445312 -0.960938,-2.8007812 -0.65625,-0.6679688 -1.535156,-1.0078125 -2.648437,-1.0078125 -1.160157,0 -2.050782,0.3632812 -2.636719,1.0546875 L 90.92772,-9.3985547 h -1.582031 v 9.3984375125 h 2.191406 V -6.7852734 c 0.199219,-0.2695313 0.492188,-0.5039063 0.867188,-0.6914063 0.351562,-0.1757812 0.703125,-0.2695312 1.019531,-0.2695312 0.679688,0 1.183594,0.1875 1.488281,0.5625 0.304688,0.3515625 0.46875,0.9492187 0.46875,1.7578125 V -1.171875e-4 Z M 100.57811,-12.668086 c -0.24609,0.257813 -0.375,0.539063 -0.375,0.902344 0,0.363281 0.12891,0.644531 0.375,0.902344 0.25781,0.246093 0.53906,0.375 0.90234,0.375 0.35157,0 0.64454,-0.128907 0.89063,-0.375 0.25781,-0.257813 0.38672,-0.539063 0.38672,-0.902344 0,-0.363281 -0.12891,-0.644531 -0.38672,-0.902344 -0.24609,-0.246094 -0.53906,-0.375 -0.89063,-0.375 -0.36328,0 -0.64453,0.128906 -0.90234,0.375 z M 102.5703,-1.171875e-4 V -9.3985547 h -3.421877 v 1.8046875 h 1.195317 v 7.5937500125 z m 3.25195,0.0234374975 c 0.375,0.10546875 0.87891,0.15234375 1.5,0.15234375 1.11328,0 1.99219,-0.24609375 2.63672,-0.75 0.64453,-0.50390626 0.97266,-1.18359376 0.97266,-2.05078126 0,-0.6679687 -0.1875,-1.21875 -0.53907,-1.6875 -0.36328,-0.46875 -0.96093,-0.84375 -1.78125,-1.1835937 -0.83203,-0.328125 -1.37109,-0.5742188 -1.61718,-0.7734375 -0.25782,-0.1992188 -0.375,-0.4101563 -0.375,-0.6445313 0,-0.609375 0.375,-0.9140625 1.14843,-0.9140625 0.84375,0 1.51172,0.1875 1.99219,0.609375 l 0.63281,-1.6875 c -0.86718,-0.4570312 -1.78125,-0.6679687 -2.7539,-0.6679687 -0.97266,0 -1.75781,0.234375 -2.36719,0.6796875 -0.63281,0.4453125 -0.9375,1.078125 -0.9375,1.9101562 0,1.1953125 0.80859,2.15625 2.42578,2.8125 0.73828,0.3046875 1.24219,0.5742188 1.51172,0.8085938 0.24609,0.234375 0.375,0.5273437 0.375,0.8789062 0,0.6210938 -0.43359,0.9257813 -1.27734,0.9257813 -0.82032,0 -1.5586,-0.2695313 -2.22657,-0.796875 l -0.77343,1.74609371 c 0.59765,0.31640625 1.07812,0.5390625 1.45312,0.6328125 z m 15.34278,-0.0234374975 -3.82032,-5.8359375125 3.17578,-3.5625 h -2.63671 l -3.12891,3.609375 v -7.6289063 l -2.19141,0.515625 V -1.171875e-4 h 2.19141 V -3.1407422 l 1.06641,-1.1132812 2.74218,4.2539062125 z m 6.25781,-0.1757812525 c 0.25781,0.234375 0.53906,0.3515625 0.86719,0.3515625 0.28125,0 0.53906,-0.0351563 0.75,-0.10546875 0.23437,-0.0703124975 0.43359,-0.26953125 0.60937,-0.5859375 -0.50391,-0.328125 -0.75,-1.12500001 -0.75,-2.35546871 v -2.015625 c 0,-1.8164063 -0.33984,-3.0585938 -1.00781,-3.7148438 -0.66797,-0.6445312 -1.71094,-0.9726562 -3.14063,-0.9726562 -1.04297,0 -1.94531,0.1757812 -2.69531,0.5390625 l 0.46875,1.7109375 c 0.55078,-0.2695313 1.25391,-0.421875 2.0625,-0.421875 1.40625,0 2.09766,0.5625 2.09766,1.6523437 -0.33985,-0.082031 -0.64453,-0.1171875 -0.91407,-0.1171875 -1.48828,0 -2.66015,0.3046875 -3.46875,0.9140625 -0.80859,0.6210938 -1.21875,1.4648438 -1.21875,2.5664063 0,0.9140625 0.29297,1.6523437 0.86719,2.15624996 0.58594,0.50390625 1.38281,0.75 2.39063,0.75 0.53906,0 1.05468,-0.10546875 1.53515,-0.3046875 0.50391,-0.2109375 0.84375,-0.48046875 1.04297,-0.80859375 0.0937,0.26953125 0.25781,0.52734375 0.50391,0.76171875 z m -0.71485,-3.38671876 c 0,1.3359375 -0.66796,2.0039063 -1.98046,2.0039063 -0.97266,0 -1.45313,-0.4335938 -1.45313,-1.2773438 0,-1.1367187 0.86719,-1.7109375 2.58984,-1.7109375 0.19922,0 0.46875,0.035156 0.84375,0.1054688 z m 18.21973,-7.2539058 v -2.027344 h -8.46094 V -1.171875e-4 h 2.28516 V -5.8712109 h 4.5 v -1.9453125 h -4.5 v -2.9999996 z m 2.28223,9.6445308 c 0.79687,0.90234376 1.91015,1.34765626 3.32812,1.34765626 1.39453,0 2.4961,-0.4453125 3.30469,-1.32421876 0.80859,-0.8789062 1.20703,-2.0625 1.20703,-3.5742187 0,-1.4882813 -0.39844,-2.6835938 -1.19531,-3.5625 -0.78516,-0.8554688 -1.88672,-1.2890625 -3.31641,-1.2890625 -1.34765,0 -2.44922,0.4453125 -3.26953,1.3476562 -0.83203,0.9023438 -1.24219,2.0625 -1.24219,3.5039063 0,1.4882812 0.39844,2.671875 1.1836,3.5507812 z m 1.71093,-5.8007812 c 0.39844,-0.5390625 0.9375,-0.8085938 1.61719,-0.8085938 1.48828,0 2.22656,1.03125 2.22656,3.0585938 0,1.0078125 -0.19921,1.7578125 -0.59765,2.296875 -0.41016,0.5390625 -0.94922,0.8085937 -1.62891,0.8085937 -1.48828,0 -2.22656,-1.0429687 -2.22656,-3.1054687 0,-0.9492188 0.19922,-1.7109375 0.60937,-2.25 z m -1.85156,-5.8124996 c -0.23437,0.246093 -0.36328,0.550781 -0.36328,0.890625 0,0.339843 0.12891,0.632812 0.36328,0.878906 0.2461,0.234375 0.55078,0.363281 0.90235,0.363281 0.33984,0 0.62109,-0.128906 0.8789,-0.363281 0.23438,-0.246094 0.35156,-0.539063 0.35156,-0.878906 0,-0.339844 -0.11718,-0.644532 -0.35156,-0.890625 -0.25781,-0.234375 -0.53906,-0.363282 -0.8789,-0.363282 -0.35157,0 -0.65625,0.128907 -0.90235,0.363282 z m 5.4375,0 c -0.22265,0.246093 -0.35156,0.550781 -0.35156,0.890625 0,0.339843 0.12891,0.632812 0.35156,0.878906 0.25781,0.234375 0.5625,0.363281 0.90235,0.363281 0.33984,0 0.63281,-0.128906 0.8789,-0.363281 0.23438,-0.246094 0.36328,-0.539063 0.36328,-0.878906 0,-0.339844 -0.1289,-0.644532 -0.36328,-0.890625 -0.24609,-0.234375 -0.53906,-0.363282 -0.8789,-0.363282 -0.33985,0 -0.64454,0.128907 -0.90235,0.363282 z m 10.48242,3.5507808 c -0.39843,-0.234375 -0.97265,-0.3398437 -1.72265,-0.3398437 -1.00781,0 -1.83985,0.3398437 -2.44922,1.0429687 v -0.8671875 h -2.19141 v 9.3984375125 h 2.19141 V -5.3555859 c 0,-0.6679688 0.19922,-1.2421875 0.59766,-1.6875 0.39843,-0.46875 0.84375,-0.703125 1.34765,-0.703125 0.46875,0 0.89063,0.1289062 1.28906,0.3984375 z m 9.69727,3.984375 c 0,-1.2539062 -0.41016,-2.296875 -1.23047,-3.1054687 -0.83203,-0.8085938 -1.92187,-1.21875 -3.26953,-1.21875 -1.30078,0 -2.39063,0.46875 -3.30469,1.3828125 -0.92578,0.9140625 -1.37109,2.1210937 -1.37109,3.5976562 0,1.5 0.41015,2.671875 1.2539,3.515625 0.83204,0.84375001 1.95704,1.25390626 3.39844,1.25390626 1.52344,0 2.6836,-0.3046875 3.44531,-0.92578125 l -0.84375,-1.67578121 c -0.51562,0.5273437 -1.28906,0.7734375 -2.27343,0.7734375 -0.8086,0 -1.45313,-0.2109375 -1.92188,-0.6328125 -0.46875,-0.4101563 -0.73828,-0.984375 -0.77344,-1.734375 h 6.71485 c 0.1289,-0.5390625 0.17578,-0.9609375 0.17578,-1.2304688 z m -4.48828,-2.4960937 c 1.37109,0 2.14453,0.6914062 2.28515,2.0742187 h -4.60546 c 0.30468,-1.3828125 1.07812,-2.0742187 2.32031,-2.0742187 z m 14.2998,7.7460937125 V -5.7657422 c 0,-1.2070312 -0.3164,-2.1445312 -0.96093,-2.8007812 -0.65625,-0.6679688 -1.53516,-1.0078125 -2.64844,-1.0078125 -1.16016,0 -2.05078,0.3632812 -2.63672,1.0546875 l -0.39844,-0.8789063 h -1.58203 v 9.3984375125 h 2.19141 V -6.7852734 c 0.19922,-0.2695313 0.49218,-0.5039063 0.86718,-0.6914063 0.35157,-0.1757812 0.70313,-0.2695312 1.01954,-0.2695312 0.67968,0 1.18359,0.1875 1.48828,0.5625 0.30468,0.3515625 0.46875,0.9492187 0.46875,1.7578125 V -1.171875e-4 Z M 185.50389,-12.668086 c -0.24609,0.257813 -0.375,0.539063 -0.375,0.902344 0,0.363281 0.12891,0.644531 0.375,0.902344 0.25781,0.246093 0.53906,0.375 0.90235,0.375 0.35156,0 0.64453,-0.128907 0.89062,-0.375 0.25781,-0.257813 0.38672,-0.539063 0.38672,-0.902344 0,-0.363281 -0.12891,-0.644531 -0.38672,-0.902344 -0.24609,-0.246094 -0.53906,-0.375 -0.89062,-0.375 -0.36329,0 -0.64454,0.128906 -0.90235,0.375 z m 1.99219,12.6679688125 V -9.3985547 h -3.42188 v 1.8046875 h 1.19532 v 7.5937500125 z m 10.60254,0 V -5.7657422 c 0,-1.2070312 -0.31641,-2.1445312 -0.96094,-2.8007812 -0.65625,-0.6679688 -1.53515,-1.0078125 -2.64844,-1.0078125 -1.16015,0 -2.05078,0.3632812 -2.63671,1.0546875 l -0.39844,-0.8789063 h -1.58203 v 9.3984375125 h 2.1914 V -6.7852734 c 0.19922,-0.2695313 0.49219,-0.5039063 0.86719,-0.6914063 0.35156,-0.1757812 0.70313,-0.2695312 1.01953,-0.2695312 0.67969,0 1.1836,0.1875 1.48828,0.5625 0.30469,0.3515625 0.46875,0.9492187 0.46875,1.7578125 V -1.171875e-4 Z M 203.51561,3.6795703 c 1.19531,0 2.22656,-0.2695312 3.08203,-0.8085937 0.84375,-0.5390625 1.27735,-1.2890625 1.27735,-2.23828129 0,-1.71093751 -1.05469,-2.57812501 -3.19922,-2.57812501 -0.30469,0 -0.67969,0.046875 -1.08985,0.1289063 -0.43359,0.09375 -0.73828,0.140625 -0.91406,0.140625 -0.42187,0 -0.62109,-0.1171875 -0.62109,-0.3515625 0,-0.1289063 0.1289,-0.2578125 0.39843,-0.375 0.26954,-0.1289063 0.4336,-0.1992188 0.46875,-0.1992188 l 0.36329,0.046875 c 0.26953,0.023437 0.48046,0.035156 0.64453,0.035156 0.98437,0 1.8164,-0.3164063 2.46093,-0.9492188 0.66797,-0.6445312 0.98438,-1.4882812 0.98438,-2.5664062 0,-0.7382813 -0.17578,-1.3828125 -0.53906,-1.9453125 l 1.04297,-0.75 -1.52344,-1.3710938 -0.86719,0.9960938 c -0.55078,-0.3046875 -1.27734,-0.46875 -2.12109,-0.46875 -1.07813,0 -1.96875,0.328125 -2.70703,0.984375 -0.73829,0.6445312 -1.11329,1.4765625 -1.11329,2.484375 0,1.2773437 0.53907,2.2382812 1.61719,2.9414062 -0.33984,0.140625 -0.63281,0.3632813 -0.8789,0.6679688 -0.25782,0.28125 -0.38672,0.5976562 -0.38672,0.9140625 0,1.07812496 0.76172,1.61718746 2.27343,1.61718746 0.2461,0 0.60938,-0.0351562475 1.08985,-0.09375 0.49219,-0.046875 0.86719,-0.08203125 1.10156,-0.08203125 0.91406,0 1.35938,0.28125 1.35938,0.84375 0,0.31640629 -0.19922,0.58593749 -0.60938,0.77343749 -0.41016,0.1992188 -0.9375,0.28125 -1.55859,0.28125 -0.96094,0 -1.80469,-0.3515625 -2.57813,-1.05468749 l -1.38281,1.69921879 c 1.17187,0.84375 2.46094,1.2773437 3.92578,1.277344 z m -1.24219,-10.9921875 c 0.30469,-0.3046875 0.71485,-0.46875 1.21875,-0.46875 0.48047,0 0.87891,0.1640625 1.1836,0.4921875 0.30468,0.3164063 0.45703,0.7148438 0.45703,1.1835938 0,0.5742187 -0.15235,1.0195312 -0.4336,1.3476562 -0.26953,0.3164063 -0.67968,0.4804688 -1.20703,0.4804688 -0.51562,0 -0.9375,-0.1640625 -1.24218,-0.5039063 -0.30469,-0.3164062 -0.46875,-0.7734375 -0.46875,-1.3242187 0,-0.4921875 0.16406,-0.8789063 0.49218,-1.2070313 z m 15.42774,2.0625 c 0,-1.2539062 -0.41016,-2.296875 -1.23047,-3.1054687 -0.83203,-0.8085938 -1.92188,-1.21875 -3.26953,-1.21875 -1.30078,0 -2.39063,0.46875 -3.30469,1.3828125 -0.92578,0.9140625 -1.37109,2.1210937 -1.37109,3.5976562 0,1.5 0.41015,2.671875 1.2539,3.515625 0.83203,0.84375001 1.95703,1.25390626 3.39844,1.25390626 1.52344,0 2.68359,-0.3046875 3.44531,-0.92578125 l -0.84375,-1.67578121 c -0.51562,0.5273437 -1.28906,0.7734375 -2.27343,0.7734375 -0.8086,0 -1.45313,-0.2109375 -1.92188,-0.6328125 -0.46875,-0.4101563 -0.73828,-0.984375 -0.77344,-1.734375 h 6.71485 c 0.1289,-0.5390625 0.17578,-0.9609375 0.17578,-1.2304688 z m -4.48828,-2.4960937 c 1.37109,0 2.14453,0.6914062 2.28515,2.0742187 h -4.60547 c 0.30469,-1.3828125 1.07813,-2.0742187 2.32032,-2.0742187 z m 14.30273,7.7460937125 V -5.7657422 c 0,-1.2070312 -0.31641,-2.1445312 -0.96094,-2.8007812 -0.65625,-0.6679688 -1.53515,-1.0078125 -2.64843,-1.0078125 -1.16016,0 -2.05079,0.3632812 -2.63672,1.0546875 l -0.39844,-0.8789063 h -1.58203 v 9.3984375125 h 2.1914 V -6.7852734 c 0.19922,-0.2695313 0.49219,-0.5039063 0.86719,-0.6914063 0.35156,-0.1757812 0.70313,-0.2695312 1.01953,-0.2695312 0.67969,0 1.1836,0.1875 1.48828,0.5625 0.30469,0.3515625 0.46875,0.9492187 0.46875,1.7578125 v 5.4257812125 z m 0,0"
           style="fill:#110f0d;fill-opacity:1;fill-rule:nonzero;stroke:none"
           aria-label="ElektroTekniska Föreningen"
           transform="matrix(1.3333333,0,0,1.3333333,1124.3355,610.84)" />
        <path
           id="path4"
           d="M 7.1591656,-9.234375e-4 V -1.5477984 H 2.7411969 V -9.7860797 H 0.99510313 v 9.7851562625 z m 7.7314454,0 V -7.1610797 h -1.664063 v 4.9335938 c -0.117187,0.2578125 -0.328125,0.46875 -0.644531,0.6679687 -0.328125,0.1992188 -0.691406,0.3046875 -1.066406,0.3046875 -0.820313,0 -1.230469,-0.46875 -1.230469,-1.3828125 V -7.1610797 H 8.6093609 v 4.6523438 c 0,1.76953121 0.8320313,2.64843746 2.4960941,2.64843746 0.351562,0 0.726562,-0.0703125 1.148437,-0.22265625 0.410156,-0.15234375 0.738281,-0.31640625 0.972656,-0.515625 v 0.5976562525 z m 8.217773,0 V -4.3954547 c 0,-0.9140625 -0.246093,-1.6289062 -0.738281,-2.1328125 -0.492187,-0.5039062 -1.160156,-0.7734375 -2.015625,-0.7734375 -0.890625,0 -1.558594,0.28125 -2.003906,0.8085938 l -0.304688,-0.6679688 h -1.207031 v 7.1601562625 h 1.675781 V -5.1806109 c 0.140625,-0.1992188 0.363282,-0.375 0.65625,-0.515625 0.269532,-0.140625 0.527344,-0.1992188 0.773438,-0.1992188 0.527344,0 0.902344,0.1289063 1.136719,0.421875 0.234375,0.2695313 0.363281,0.7265625 0.363281,1.3359375 v 4.1367187625 z m 8.226563,0 V -10.219673 l -1.664063,0.3867183 v 2.859375 c -0.457031,-0.2109375 -0.949218,-0.328125 -1.476562,-0.328125 -1.007813,0 -1.828125,0.3632813 -2.484375,1.078125 -0.65625,0.703125 -0.984375,1.6289063 -0.984375,2.7539063 0,1.1367187 0.292969,2.015625 0.867187,2.66015621 0.574219,0.6328125 1.347657,0.94921875 2.355469,0.94921875 0.351563,0 0.691406,-0.05859375 1.019531,-0.1875 0.328125,-0.10546875 0.5625,-0.24609375 0.703125,-0.38671875 V -9.234375e-4 Z M 29.670884,-1.7118609 c -0.07031,0.09375 -0.222656,0.1875 -0.457031,0.2929687 -0.246094,0.09375 -0.433594,0.140625 -0.597656,0.140625 -1.441406,0 -2.15625,-0.7382812 -2.15625,-2.2265625 0,-0.7617187 0.1875,-1.359375 0.550781,-1.7578125 0.351563,-0.4101562 0.878906,-0.609375 1.535156,-0.609375 0.398438,0 0.761719,0.140625 1.125,0.421875 z m 4.142579,1.72265621 c 0.292968,0.08203125 0.679687,0.12890625 1.136718,0.12890625 0.855469,0 1.523438,-0.19921875 2.015625,-0.57421875 0.492188,-0.38671875 0.738282,-0.90234371 0.738282,-1.57031251 0,-0.5039062 -0.140625,-0.9257812 -0.410157,-1.2773437 -0.269531,-0.3632813 -0.726562,-0.6445313 -1.359375,-0.9023438 -0.621093,-0.2460937 -1.03125,-0.4453125 -1.230468,-0.5976562 -0.1875,-0.140625 -0.28125,-0.3046875 -0.28125,-0.4921875 0,-0.4570313 0.28125,-0.6914063 0.867187,-0.6914063 0.644531,0 1.160156,0.1523438 1.523438,0.4570313 l 0.480468,-1.2773438 c -0.65625,-0.3515625 -1.359375,-0.515625 -2.097656,-0.515625 -0.738281,0 -1.335937,0.1875 -1.804687,0.5273438 -0.480469,0.3398437 -0.714844,0.8203125 -0.714844,1.453125 0,0.9140625 0.621094,1.640625 1.851562,2.1445312 0.5625,0.234375 0.949219,0.4335938 1.148438,0.6210938 0.199219,0.1757812 0.292969,0.3867187 0.292969,0.6679687 0,0.46875 -0.328125,0.6914063 -0.972657,0.6914063 -0.632812,0 -1.195312,-0.1992188 -1.699218,-0.5976563 L 32.7119,-0.46967344 c 0.445313,0.24609375 0.820313,0.41015625 1.101563,0.48046875 z M 50.503892,-8.2392047 v -1.546875 h -8.109375 v 1.546875 h 3.117188 V -9.234375e-4 H 47.24608 V -8.2392047 Z m 6.202149,4.2421875 c 0,-0.9609375 -0.316407,-1.7578125 -0.9375,-2.3671875 -0.632813,-0.6210937 -1.464844,-0.9375 -2.496094,-0.9375 -0.984375,0 -1.816406,0.3632813 -2.519531,1.0546875 -0.691407,0.703125 -1.042969,1.6171875 -1.042969,2.7421875 0,1.1484375 0.316406,2.0390625 0.960937,2.68359376 0.632813,0.64453125 1.488282,0.9609375 2.589844,0.9609375 1.160156,0 2.039063,-0.234375 2.625,-0.71484375 L 55.241197,-1.8524859 c -0.398438,0.3984375 -0.984375,0.5976562 -1.734375,0.5976562 -0.621094,0 -1.113281,-0.1640625 -1.464844,-0.4804687 -0.351562,-0.3164063 -0.5625,-0.7617188 -0.585937,-1.3359375 h 5.121093 c 0.09375,-0.4101563 0.128907,-0.7265625 0.128907,-0.9257813 z m -3.421875,-1.8984375 c 1.042968,0 1.628906,0.515625 1.746093,1.5703125 h -3.503906 c 0.222656,-1.0546875 0.820313,-1.5703125 1.757813,-1.5703125 z M 64.750963,-9.234375e-4 61.832994,-4.4540484 64.258775,-7.1610797 H 62.24315 l -2.378906,2.7539063 v -5.8124996 l -1.675781,0.3867183 v 9.8320312625 h 1.675781 V -2.3915484 l 0.796875,-0.8554688 2.097656,3.2460937625 z m 7.347656,0 V -4.3954547 c 0,-0.9140625 -0.246094,-1.6289062 -0.738281,-2.1328125 -0.492188,-0.5039062 -1.160157,-0.7734375 -2.015625,-0.7734375 -0.890625,0 -1.558594,0.28125 -2.003907,0.8085938 l -0.304687,-0.6679688 h -1.207031 v 7.1601562625 h 1.675781 V -5.1806109 c 0.140625,-0.1992188 0.363281,-0.375 0.65625,-0.515625 0.269531,-0.140625 0.527344,-0.1992188 0.773437,-0.1992188 0.527344,0 0.902344,0.1289063 1.136719,0.421875 0.234375,0.2695313 0.363281,0.7265625 0.363281,1.3359375 V -9.234375e-4 Z M 74.665025,-9.6454547 c -0.199219,0.1875 -0.292969,0.4101563 -0.292969,0.6796875 0,0.2695313 0.09375,0.4921875 0.292969,0.6796875 0.1875,0.1992188 0.410156,0.2929688 0.679688,0.2929688 0.269531,0 0.492187,-0.09375 0.679687,-0.2929688 0.199219,-0.1875 0.292969,-0.4101562 0.292969,-0.6796875 0,-0.2695312 -0.09375,-0.4921875 -0.292969,-0.6796875 -0.1875,-0.1992187 -0.410156,-0.2929687 -0.679687,-0.2929687 -0.269532,0 -0.492188,0.09375 -0.679688,0.2929687 z m 1.511719,9.6445312625 V -7.1610797 h -2.613281 v 1.3710938 h 0.914062 V -9.234375e-4 Z M 78.92772,0.01079531 c 0.292969,0.08203125 0.679688,0.12890625 1.136719,0.12890625 0.855469,0 1.523438,-0.19921875 2.015625,-0.57421875 0.492188,-0.38671875 0.738281,-0.90234371 0.738281,-1.57031251 0,-0.5039062 -0.140625,-0.9257812 -0.410156,-1.2773437 -0.269531,-0.3632813 -0.726562,-0.6445313 -1.359375,-0.9023438 -0.621094,-0.2460937 -1.03125,-0.4453125 -1.230469,-0.5976562 -0.1875,-0.140625 -0.28125,-0.3046875 -0.28125,-0.4921875 0,-0.4570313 0.28125,-0.6914063 0.867188,-0.6914063 0.644531,0 1.160156,0.1523438 1.523437,0.4570313 l 0.480469,-1.2773438 c -0.65625,-0.3515625 -1.359375,-0.515625 -2.097656,-0.515625 -0.738281,0 -1.335938,0.1875 -1.804688,0.5273438 -0.480468,0.3398437 -0.714843,0.8203125 -0.714843,1.453125 0,0.9140625 0.621093,1.640625 1.851562,2.1445312 0.5625,0.234375 0.949219,0.4335938 1.148438,0.6210938 0.199218,0.1757812 0.292968,0.3867187 0.292968,0.6679687 0,0.46875 -0.328125,0.6914063 -0.972656,0.6914063 -0.632812,0 -1.195312,-0.1992188 -1.699219,-0.5976563 l -0.585937,1.32421876 c 0.445312,0.24609375 0.820312,0.41015625 1.101562,0.48046875 z M 90.83397,-9.234375e-4 87.916002,-4.4540484 90.341783,-7.1610797 h -2.015625 l -2.378906,2.7539063 v -5.8124996 l -1.675782,0.3867183 v 9.8320312625 h 1.675782 V -2.3915484 l 0.796875,-0.8554688 2.097656,3.2460937625 z M 95.870103,-0.14154844 c 0.1875,0.1875 0.410156,0.28125 0.65625,0.28125 0.210938,0 0.410156,-0.0351563 0.574219,-0.08203125 0.175781,-0.0585937475 0.328125,-0.2109375 0.46875,-0.45703125 -0.386719,-0.24609375 -0.585938,-0.84374996 -0.585938,-1.79296876 v -1.5351562 c 0,-1.3828125 -0.257812,-2.3203125 -0.761718,-2.8242188 -0.503907,-0.5039062 -1.300782,-0.75 -2.390625,-0.75 -0.796875,0 -1.476563,0.140625 -2.0625,0.4101563 l 0.363281,1.3007812 c 0.421875,-0.1992187 0.960937,-0.3046875 1.570312,-0.3046875 1.066407,0 1.605469,0.421875 1.605469,1.2539063 -0.257812,-0.070312 -0.492187,-0.09375 -0.703125,-0.09375 -1.136719,0 -2.027344,0.234375 -2.636719,0.6914062 -0.621093,0.4804688 -0.9375,1.125 -0.9375,1.9570313 0,0.703125 0.222657,1.26562496 0.65625,1.65234371 0.457032,0.375 1.054688,0.57421875 1.828125,0.57421875 0.410157,0 0.808594,-0.08203125 1.171875,-0.234375 0.386719,-0.1640625 0.644532,-0.375 0.796875,-0.62109375 0.07031,0.2109375 0.1875,0.3984375 0.386719,0.57421875 z M 95.319322,-2.7079547 c 0,1.0078125 -0.503906,1.5117188 -1.511719,1.5117188 -0.738281,0 -1.101562,-0.328125 -1.101562,-0.9726563 0,-0.8554687 0.65625,-1.3007812 1.96875,-1.3007812 0.152343,0 0.351562,0.035156 0.644531,0.09375 z M 110.62108,-9.234375e-4 V -9.7860797 h -1.72266 v 3.8320313 h -3.8789 v -3.8320313 h -1.7461 v 9.7851562625 h 1.7461 V -4.4071734 h 3.8789 v 4.4062499625 z m 2.49316,-0.8906250025 c 0.60938,0.6796875 1.45313,1.03125 2.54297,1.03125 1.06641,0 1.89844,-0.3515625 2.50782,-1.01953125 0.62109,-0.66796871 0.92578,-1.57031251 0.92578,-2.71875001 0,-1.1367187 -0.30469,-2.0390625 -0.90235,-2.7070312 -0.60937,-0.6679688 -1.4414,-0.9960938 -2.53125,-0.9960938 -1.03125,0 -1.86328,0.3515625 -2.49609,1.03125 -0.63281,0.6796875 -0.94922,1.5703125 -0.94922,2.671875 0,1.1367188 0.30469,2.0390625 0.90234,2.70703126 z m 1.30079,-4.41796876 c 0.30468,-0.4101562 0.71484,-0.6210937 1.24218,-0.6210937 1.125,0 1.6875,0.7851562 1.6875,2.3320312 0,0.7617188 -0.14062,1.3359375 -0.44531,1.7460938 -0.31641,0.4101562 -0.72656,0.6210937 -1.24219,0.6210937 -1.13672,0 -1.69922,-0.796875 -1.69922,-2.3671875 0,-0.7265625 0.15235,-1.3007812 0.45704,-1.7109375 z m -1.40625,-4.4414062 c -0.17579,0.1992187 -0.26954,0.4335937 -0.26954,0.6914062 0,0.2578125 0.0937,0.4804688 0.26954,0.6679688 0.1875,0.1757812 0.42187,0.2695312 0.6914,0.2695312 0.25781,0 0.46875,-0.09375 0.66797,-0.2695312 0.17578,-0.1875 0.26953,-0.4101563 0.26953,-0.6679688 0,-0.2578125 -0.0937,-0.4921875 -0.26953,-0.6914062 -0.19922,-0.1757813 -0.41016,-0.2695316 -0.66797,-0.2695316 -0.26953,0 -0.5039,0.09375 -0.6914,0.2695316 z m 4.14843,0 c -0.17578,0.1992187 -0.26953,0.4335937 -0.26953,0.6914062 0,0.2578125 0.0937,0.4804688 0.26953,0.6679688 0.1875,0.1757812 0.42188,0.2695312 0.67969,0.2695312 0.26953,0 0.48047,-0.09375 0.67969,-0.2695312 0.17578,-0.1875 0.26953,-0.4101563 0.26953,-0.6679688 0,-0.2578125 -0.0937,-0.4921875 -0.26953,-0.6914062 -0.19922,-0.1757813 -0.41016,-0.2695316 -0.67969,-0.2695316 -0.25781,0 -0.49219,0.09375 -0.67969,0.2695316 z m 5.85938,12.5507812 c 0.91406,0 1.69922,-0.1992187 2.35547,-0.609375 0.64453,-0.4101562 0.97265,-0.984375 0.97265,-1.71093749 0,-1.30078125 -0.80859,-1.95703121 -2.4375,-1.95703121 -0.23437,0 -0.51562,0.023437 -0.83203,0.09375 -0.32812,0.070312 -0.5625,0.1054687 -0.70312,0.1054687 -0.31641,0 -0.45703,-0.09375 -0.45703,-0.2695312 0,-0.09375 0.0937,-0.1875 0.29296,-0.2929688 0.21094,-0.09375 0.32813,-0.140625 0.36329,-0.140625 l 0.26953,0.035156 c 0.19922,0.011719 0.375,0.023437 0.49218,0.023437 0.75,0 1.38282,-0.2460938 1.875,-0.7148438 0.50391,-0.4921875 0.75,-1.1367187 0.75,-1.9570312 0,-0.5625 -0.1289,-1.0546875 -0.41015,-1.4882813 l 0.79687,-0.5742187 -1.16015,-1.03125 -0.65625,0.75 c -0.4336,-0.234375 -0.97266,-0.3632813 -1.61719,-0.3632813 -0.82031,0 -1.51172,0.2460938 -2.07422,0.7617188 -0.55078,0.4921875 -0.84375,1.1132812 -0.84375,1.8867187 0,0.9726563 0.41016,1.7109375 1.23047,2.2382813 -0.25781,0.1171875 -0.48047,0.28125 -0.66797,0.515625 -0.1875,0.2109375 -0.29297,0.4453125 -0.29297,0.6914062 0,0.82031251 0.57422,1.23046876 1.73438,1.23046876 0.1875,0 0.45703,-0.0234374975 0.83203,-0.0703125 0.36328,-0.03515625 0.65625,-0.05859375 0.83203,-0.05859375 0.70312,0 1.04297,0.2109375 1.04297,0.64453125 0,0.24609375 -0.15235,0.4453125 -0.46875,0.58593754 -0.31641,0.1523437 -0.71485,0.2109375 -1.19531,0.2109375 -0.71485,0 -1.35938,-0.2695313 -1.95704,-0.79687504 l -1.04296,1.30078124 c 0.8789,0.6328125 1.875,0.9609375 2.97656,0.9609383 z m -0.9375,-8.3671875 c 0.22265,-0.234375 0.53906,-0.3632812 0.92578,-0.3632812 0.375,0 0.66797,0.1289062 0.90234,0.375 0.23438,0.2460937 0.33985,0.5507812 0.33985,0.9023437 0,0.4335938 -0.10547,0.7734375 -0.32813,1.0195313 -0.19922,0.2578125 -0.51562,0.375 -0.91406,0.375 -0.39844,0 -0.71484,-0.1171875 -0.94922,-0.3867188 -0.22266,-0.2460937 -0.35156,-0.5859375 -0.35156,-1.0078125 0,-0.375 0.1289,-0.6679687 0.375,-0.9140625 z m 6.16699,5.57812501 c 0.29297,0.08203125 0.67969,0.12890625 1.13672,0.12890625 0.85547,0 1.52344,-0.19921875 2.01562,-0.57421875 0.49219,-0.38671875 0.73828,-0.90234371 0.73828,-1.57031251 0,-0.5039062 -0.14062,-0.9257812 -0.41015,-1.2773437 -0.26953,-0.3632813 -0.72656,-0.6445313 -1.35938,-0.9023438 -0.62109,-0.2460937 -1.03125,-0.4453125 -1.23047,-0.5976562 -0.1875,-0.140625 -0.28125,-0.3046875 -0.28125,-0.4921875 0,-0.4570313 0.28125,-0.6914063 0.86719,-0.6914063 0.64453,0 1.16016,0.1523438 1.52344,0.4570313 l 0.48047,-1.2773438 c -0.65625,-0.3515625 -1.35938,-0.515625 -2.09766,-0.515625 -0.73828,0 -1.33594,0.1875 -1.80469,0.5273438 -0.48046,0.3398437 -0.71484,0.8203125 -0.71484,1.453125 0,0.9140625 0.62109,1.640625 1.85156,2.1445312 0.5625,0.234375 0.94922,0.4335938 1.14844,0.6210938 0.19922,0.1757812 0.29297,0.3867187 0.29297,0.6679687 0,0.46875 -0.32813,0.6914063 -0.97266,0.6914063 -0.63281,0 -1.19531,-0.1992188 -1.69922,-0.5976563 l -0.58593,1.32421876 c 0.44531,0.24609375 0.82031,0.41015625 1.10156,0.48046875 z M 140.1787,-9.234375e-4 137.26073,-4.4540484 l 2.42578,-2.7070313 h -2.01563 l -2.3789,2.7539063 v -5.8124996 l -1.67578,0.3867183 v 9.8320312625 h 1.67578 V -2.3915484 l 0.79687,-0.8554688 2.09766,3.2460937625 z m 1.50879,-0.8906250025 c 0.60937,0.6796875 1.45312,1.03125 2.54296,1.03125 1.06641,0 1.89844,-0.3515625 2.50782,-1.01953125 0.62109,-0.66796871 0.92578,-1.57031251 0.92578,-2.71875001 0,-1.1367187 -0.30469,-2.0390625 -0.90235,-2.7070312 -0.60937,-0.6679688 -1.4414,-0.9960938 -2.53125,-0.9960938 -1.03125,0 -1.86328,0.3515625 -2.49609,1.03125 -0.63281,0.6796875 -0.94922,1.5703125 -0.94922,2.671875 0,1.1367188 0.30469,2.0390625 0.90235,2.70703126 z m 1.30078,-4.41796876 c 0.30468,-0.4101562 0.71484,-0.6210937 1.24218,-0.6210937 1.125,0 1.6875,0.7851562 1.6875,2.3320312 0,0.7617188 -0.14062,1.3359375 -0.44531,1.7460938 -0.3164,0.4101562 -0.72656,0.6210937 -1.24219,0.6210937 -1.13671,0 -1.69921,-0.796875 -1.69921,-2.3671875 0,-0.7265625 0.15234,-1.3007812 0.45703,-1.7109375 z m 6.44531,3.8671875 c 0,1.05468751 0.375,1.58203126 1.13672,1.58203126 0.62109,0 1.0664,-0.24609375 1.32422,-0.73828125 -0.53907,-0.1875 -0.79688,-0.70312501 -0.79688,-1.58203121 v -8.0390621 l -1.66406,0.3867183 z m 8.25586,1.30078126 c 0.1875,0.1875 0.41016,0.28125 0.65625,0.28125 0.21094,0 0.41016,-0.0351563 0.57422,-0.08203125 0.17578,-0.0585937475 0.32812,-0.2109375 0.46875,-0.45703125 -0.38672,-0.24609375 -0.58594,-0.84374996 -0.58594,-1.79296876 v -1.5351562 c 0,-1.3828125 -0.25781,-2.3203125 -0.76172,-2.8242188 -0.5039,-0.5039062 -1.30078,-0.75 -2.39062,-0.75 -0.79688,0 -1.47657,0.140625 -2.0625,0.4101563 l 0.36328,1.3007812 c 0.42187,-0.1992187 0.96094,-0.3046875 1.57031,-0.3046875 1.06641,0 1.60547,0.421875 1.60547,1.2539063 -0.25781,-0.070312 -0.49219,-0.09375 -0.70313,-0.09375 -1.13671,0 -2.02734,0.234375 -2.63671,0.6914062 -0.6211,0.4804688 -0.9375,1.125 -0.9375,1.9570313 0,0.703125 0.22265,1.26562496 0.65625,1.65234371 0.45703,0.375 1.05468,0.57421875 1.82812,0.57421875 0.41016,0 0.80859,-0.08203125 1.17188,-0.234375 0.38671,-0.1640625 0.64453,-0.375 0.79687,-0.62109375 0.0703,0.2109375 0.1875,0.3984375 0.38672,0.57421875 z m -0.55078,-2.56640626 c 0,1.0078125 -0.50391,1.5117188 -1.51172,1.5117188 -0.73828,0 -1.10156,-0.328125 -1.10156,-0.9726563 0,-0.8554687 0.65625,-1.3007812 1.96875,-1.3007812 0.15234,0 0.35156,0.035156 0.64453,0.09375 z m 0,0"
           style="fill:#4b564a;fill-opacity:1;fill-rule:nonzero;stroke:none"
           aria-label="Lunds Tekniska Högskola"
           transform="matrix(1.3333333,0,0,1.3333333,1124.3355,627.6692)" />
      </g>
    </g>
  </g>
</svg>
